<svg xmlns="http://www.w3.org/2000/svg" width="256" height="256" viewBox="0 0 256 256">
<defs><linearGradient id="g" x1="0" y1="0" x2="0" y2="1"><stop offset="0" stop-color="#2E3440"/><stop offset="1" stop-color="#171A20"/></linearGradient></defs><rect x="6" y="6" width="244" height="244" rx="52" fill="url(#g)"/>
<g stroke="none">
<polygon points="44,92.0 128,140.0 128,149.2 44,101.2" fill="#A67C52"/><polygon points="128,140.0 212,92.0 212,101.2 128,149.2" fill="#8C6642"/><polygon points="44,101.2 128,149.2 128,167.6 44,119.6" fill="#E8C9A6"/><polygon points="128,149.2 212,101.2 212,119.6 128,167.6" fill="#CDB08E"/><polygon points="44,119.6 128,167.6 128,191.5 44,143.5" fill="#CFC3E6"/><polygon points="128,167.6 212,119.6 212,143.5 128,191.5" fill="#B3A7CB"/><polygon points="44,143.5 128,191.5 128,200.7 44,152.7" fill="#3F9BE0"/><polygon points="128,191.5 212,143.5 212,152.7 128,200.7" fill="#2F7FBF"/><polygon points="44,152.7 128,200.7 128,232.0 44,184.0" fill="#B98B80"/><polygon points="128,200.7 212,152.7 212,184.0 128,232.0" fill="#9C7268"/>
<polygon points="128,44 212,92 128,140 44,92" fill="#D9BE93"/>
<polygon points="128,140 128,232" />
</g>
<g fill="none" stroke="#1B1F26" stroke-opacity="0.35" stroke-width="2" stroke-linejoin="round">
<polygon points="128,44 212,92 128,140 44,92"/>
<polyline points="44,92 44,184 128,232 212,184 212,92"/>
<line x1="128" y1="140" x2="128" y2="232"/>
</g>
<line x1="128" y1="18" x2="128" y2="92" stroke="#F0A43A" stroke-width="9" stroke-linecap="round"/>
<ellipse cx="128" cy="92" rx="13" ry="7.5" fill="#F0A43A"/>
<ellipse cx="128" cy="92" rx="5.5" ry="3.2" fill="#1B1F26"/>
</svg>